<svg width="138" height="42" viewBox="0 0 138 42" fill="none" xmlns="http://www.w3.org/2000/svg">
<path d="M51 33.297L60.6865 7.01569H65.0417L74.6532 33.297H70.4482L68.1955 26.8769H57.4577L55.205 33.297H51ZM58.584 23.7231H67.0691L62.8266 11.7463L58.584 23.7231Z" fill="white"/>
<path d="M78.2306 9.47359C77.4797 9.47359 76.854 9.24832 76.3534 8.79778C75.8778 8.32222 75.64 7.73402 75.64 7.03318C75.64 6.33235 75.8778 5.75666 76.3534 5.30612C76.854 4.83056 77.4797 4.59277 78.2306 4.59277C78.9815 4.59277 79.5947 4.83056 80.0703 5.30612C80.5709 5.75666 80.8212 6.33235 80.8212 7.03318C80.8212 7.73402 80.5709 8.32222 80.0703 8.79778C79.5947 9.24832 78.9815 9.47359 78.2306 9.47359ZM76.2407 33.297V12.5848H80.2205V33.297H76.2407Z" fill="white"/>
<path d="M84.2973 33.297V6.26479H88.2771V22.3715L95.4106 14.6748H100.179L92.2568 23.1224L101.343 33.297H96.3117L88.2771 23.7606V33.297H84.2973Z" fill="white"/>
<path d="M109.517 33.7475C107.689 33.7475 106.063 33.3471 104.636 32.5461C103.234 31.7201 102.133 30.5813 101.332 29.1295C100.531 27.6778 100.13 25.9883 100.13 24.061C100.13 22.1087 100.518 20.3941 101.294 18.9174C102.095 17.4406 103.197 16.2892 104.598 15.4633C106.025 14.6373 107.677 14.2243 109.554 14.2243C111.381 14.2243 112.971 14.6373 114.322 15.4633C115.674 16.2642 116.725 17.3405 117.476 18.6921C118.227 20.0437 118.602 21.533 118.602 23.1599C118.602 23.4102 118.59 23.6856 118.565 23.9859C118.565 24.2612 118.552 24.5741 118.527 24.9245H104.035C104.16 26.7267 104.748 28.1033 105.8 29.0544C106.876 29.9806 108.115 30.4436 109.517 30.4436C110.643 30.4436 111.582 30.1933 112.333 29.6927C113.108 29.1671 113.684 28.4662 114.06 27.5902H118.039C117.539 29.3423 116.538 30.8065 115.036 31.9829C113.559 33.1593 111.719 33.7475 109.517 33.7475ZM109.517 17.4907C108.19 17.4907 107.014 17.8911 105.987 18.6921C104.961 19.468 104.335 20.6444 104.11 22.2213H114.623C114.548 20.7696 114.035 19.6182 113.083 18.7672C112.132 17.9162 110.943 17.4907 109.517 17.4907Z" fill="white"/>
<path d="M120.542 33.297V14.6748H124.071L124.371 17.9412C124.947 16.7898 125.785 15.8888 126.887 15.238C128.013 14.5622 129.302 14.2243 130.754 14.2243C133.007 14.2243 134.771 14.9251 136.048 16.3268C137.349 17.7285 138 19.8184 138 22.5968V33.297H134.058V23.0097C134.058 19.4054 132.581 17.6033 129.628 17.6033C128.151 17.6033 126.924 18.1289 125.948 19.1802C124.997 20.2314 124.521 21.7332 124.521 23.6856V33.297H120.542Z" fill="white"/>
<path fill-rule="evenodd" clip-rule="evenodd" d="M33.0514 0.183339H37.2301V4.36254H33.0514V0.183339ZM22.0184 0.18334L26.1971 0.18334V4.36254L22.0184 4.36254V0.18334ZM33.0514 12.5849H37.2301V16.7641H33.0514V12.5849ZM33.0514 25.0222H37.2301V29.2014H33.0514V25.0222ZM10.9854 25.0222H15.1642V29.2014H10.9854V25.0222Z" fill="white"/>
<path fill-rule="evenodd" clip-rule="evenodd" d="M4.14196 7.12282C4.14196 5.47653 5.47653 4.14196 7.12281 4.14196H15.2845V0H7.12281C3.18899 0 0 3.189 0 7.12282V35.39C0 38.8208 2.78075 41.6021 6.21132 41.6029H6.21294L37.2039 41.6538V39.0328L13.3181 11.3973L4.14196 21.7038V7.12282ZM4.14196 35.39V27.9327L13.272 17.678L30.405 37.5007L6.21634 37.461H6.21294C5.06917 37.461 4.14196 36.5338 4.14196 35.39Z" fill="white"/>
</svg>
