<svg width="138" height="42" viewBox="0 0 138 42" fill="none" xmlns="http://www.w3.org/2000/svg">
<path d="M50.8135 33.4468L60.2931 7.72695H64.5552L73.9613 33.4468H69.8462L67.6416 27.1638H57.1332L54.9287 33.4468H50.8135ZM58.2355 24.0774H66.5393L62.3874 12.3565L58.2355 24.0774Z" fill="black"/>
<path d="M77.4623 10.1323C76.7275 10.1323 76.1151 9.91189 75.6252 9.47098C75.1598 9.00557 74.9271 8.42994 74.9271 7.74407C74.9271 7.05821 75.1598 6.49483 75.6252 6.05391C76.1151 5.58851 76.7275 5.3558 77.4623 5.3558C78.1972 5.3558 78.7973 5.58851 79.2627 6.05391C79.7526 6.49483 79.9975 7.05821 79.9975 7.74407C79.9975 8.42994 79.7526 9.00557 79.2627 9.47098C78.7973 9.91189 78.1972 10.1323 77.4623 10.1323ZM75.5149 33.4468V13.1771H79.4097V33.4468H75.5149Z" fill="black"/>
<path d="M85.4448 33.4468V6.9921H89.3395V22.7547L96.3206 15.2224H100.987L93.2343 23.4895L102.126 33.4468H97.2025L89.3395 24.1142V33.4468H85.4448Z" fill="black"/>
<path d="M110.125 33.8877C108.337 33.8877 106.745 33.4958 105.349 32.7119C103.977 31.9036 102.899 30.7891 102.115 29.3684C101.332 27.9476 100.94 26.2942 100.94 24.4081C100.94 22.4975 101.319 20.8196 102.079 19.3744C102.863 17.9292 103.94 16.8024 105.312 15.994C106.708 15.1857 108.325 14.7815 110.162 14.7815C111.95 14.7815 113.506 15.1857 114.828 15.994C116.151 16.7779 117.18 17.8312 117.915 19.1539C118.65 20.4766 119.017 21.9341 119.017 23.5263C119.017 23.7712 119.005 24.0407 118.98 24.3346C118.98 24.6041 118.968 24.9103 118.944 25.2532H104.761C104.883 27.0168 105.459 28.3641 106.488 29.2949C107.541 30.2012 108.754 30.6544 110.125 30.6544C111.228 30.6544 112.146 30.4094 112.881 29.9195C113.64 29.4051 114.204 28.7192 114.571 27.8619H118.466C117.976 29.5766 116.996 31.0095 115.526 32.1608C114.081 33.3121 112.281 33.8877 110.125 33.8877ZM110.125 17.9781C108.827 17.9781 107.676 18.3701 106.672 19.1539C105.667 19.9133 105.055 21.0645 104.834 22.6077H115.122C115.049 21.187 114.547 20.0602 113.616 19.2274C112.685 18.3946 111.522 17.9781 110.125 17.9781Z" fill="black"/>
<path d="M120.915 33.4468V15.2224H124.369L124.663 18.4191C125.226 17.2923 126.047 16.4105 127.124 15.7736C128.227 15.1122 129.488 14.7815 130.909 14.7815C133.113 14.7815 134.84 15.4674 136.09 16.8391C137.363 18.2109 138 20.2562 138 22.9751V33.4468H134.142V23.3793C134.142 19.852 132.697 18.0884 129.807 18.0884C128.361 18.0884 127.161 18.6028 126.206 19.6316C125.275 20.6604 124.81 22.1301 124.81 24.0407V33.4468H120.915Z" fill="black"/>
<path fill-rule="evenodd" clip-rule="evenodd" d="M33.0514 0.268667H37.2301V4.44787H33.0514V0.268667ZM22.0184 0.268667L26.1971 0.268667V4.44787L22.0184 4.44787V0.268667ZM33.0514 12.6702H37.2301V16.8494H33.0514V12.6702ZM33.0514 25.1075H37.2301V29.2867H33.0514V25.1075ZM10.9854 25.1075H15.1642V29.2867H10.9854V25.1075Z" fill="black"/>
<path fill-rule="evenodd" clip-rule="evenodd" d="M4.14196 7.20814C4.14196 5.56186 5.47653 4.22729 7.12281 4.22729H15.2845V0.0853271H7.12281C3.18899 0.0853271 0 3.27432 0 7.20814V35.4753C0 38.9061 2.78075 41.6874 6.21132 41.6883H6.21294L37.2039 41.7391V39.1181L13.3181 11.4826L4.14196 21.7892V7.20814ZM4.14196 35.4753V28.018L13.272 17.7633L30.405 37.586L6.21634 37.5463H6.21294C5.06917 37.5463 4.14196 36.6191 4.14196 35.4753Z" fill="black"/>
</svg>
