<svg width="49" height="54" viewBox="0 0 49 54" fill="none" xmlns="http://www.w3.org/2000/svg">
<path fill-rule="evenodd" clip-rule="evenodd" d="M43.5002 0.237682H49V5.6556H43.5002V0.237682ZM28.9793 0.237682L34.4791 0.237682V5.6556L28.9793 5.6556V0.237682ZM43.5002 16.3151H49V21.733H43.5002V16.3151ZM43.5002 32.4388H49V37.8567H43.5002V32.4388ZM14.4584 32.4388H19.9582V37.8567H14.4584V32.4388Z" fill="white"/>
<path fill-rule="evenodd" clip-rule="evenodd" d="M5.4514 9.23403C5.4514 7.09979 7.20788 5.36964 9.37461 5.36964H20.1166V0H9.37461C4.19715 0 0 4.13422 0 9.23403V45.8796C0 50.3273 3.65985 53.933 8.17496 53.9341H8.17709L48.9655 54V50.6022L17.5285 14.7754L5.4514 28.1369V9.23403ZM5.4514 45.8796V36.212L17.4678 22.9177L40.0172 48.6159L8.18156 48.5645H8.17709C6.67173 48.5645 5.4514 47.3624 5.4514 45.8796Z" fill="white"/>
<path d="M28.5063 18.8265C28.5063 16.9227 30.0732 15.3794 32.0059 15.3794C33.9387 15.3794 35.5055 16.9227 35.5055 18.8265C35.5055 20.7303 33.9387 22.2736 32.0059 22.2736C30.0732 22.2736 28.5063 20.7303 28.5063 18.8265Z" fill="white"/>
</svg>
